<svg width="48" height="48" viewBox="0 0 48 48" fill="none" xmlns="http://www.w3.org/2000/svg">
<path d="M26.0001 11.298C20.3161 5.61396 12.4161 4.29796 8.35606 8.35796M8.35606 8.35796C4.29606 12.418 5.61406 20.316 11.2961 26M8.35606 8.35796C8.84606 10.81 11.4441 16.148 17.9161 17.912M18.4221 39.578C22.5941 43.75 30.7141 42.398 36.5561 36.556C42.3961 30.714 43.7501 22.596 39.5761 18.422C37.0601 18.924 31.5681 21.594 29.7541 28.242C27.1641 37.742 21.4421 38.568 18.4201 39.576M18.4241 39.58C14.2521 35.406 15.6041 27.288 21.4461 21.446C27.2881 15.606 35.4061 14.252 39.5801 18.426" stroke="#5A4939" stroke-width="3" stroke-linecap="round" stroke-linejoin="round"/>
</svg>
