<svg width="33" height="32" viewBox="0 0 33 32" fill="none" xmlns="http://www.w3.org/2000/svg">
<path fill-rule="evenodd" clip-rule="evenodd" d="M2.04749 4.00407C2.04749 3.3968 2.28872 2.8144 2.71813 2.385C3.14753 1.95559 3.72993 1.71436 4.3372 1.71436H28.3292C28.9365 1.71436 29.5189 1.95559 29.9483 2.385C30.3777 2.8144 30.6189 3.3968 30.6189 4.00407V27.9961C30.6189 28.6033 30.3777 29.1857 29.9483 29.6151C29.5189 30.0445 28.9365 30.2858 28.3292 30.2858H4.3372C3.72993 30.2858 3.14753 30.0445 2.71813 29.6151C2.28872 29.1857 2.04749 28.6033 2.04749 27.9961V4.00407ZM21.6361 29.1429V18.1955H25.3423L25.8972 13.9292H21.6361V11.2052C21.6361 9.96978 21.9818 9.12807 23.7686 9.12807L26.0475 9.12693V5.31093C25.6532 5.2595 24.3006 5.14293 22.7269 5.14293C19.4412 5.14293 17.1921 7.1315 17.1921 10.7829V13.9292H13.4761V18.1955H17.1921V29.1429H21.6361Z" fill="#F9F4EF"/>
</svg>
