<svg width="33" height="32" viewBox="0 0 33 32" fill="none" xmlns="http://www.w3.org/2000/svg">
<g clip-path="url(#clip0_42_646)">
<path d="M16.3333 10.6667C14.9188 10.6667 13.5622 11.2286 12.562 12.2288C11.5618 13.229 10.9999 14.5855 10.9999 16C10.9999 17.4145 11.5618 18.771 12.562 19.7712C13.5622 20.7714 14.9188 21.3333 16.3333 21.3333C17.7477 21.3333 19.1043 20.7714 20.1045 19.7712C21.1047 18.771 21.6666 17.4145 21.6666 16C21.6666 14.5855 21.1047 13.229 20.1045 12.2288C19.1043 11.2286 17.7477 10.6667 16.3333 10.6667Z" fill="#F9F4EF"/>
<path fill-rule="evenodd" clip-rule="evenodd" d="M9.93325 0C7.38717 0 4.94538 1.01143 3.14503 2.81178C1.34468 4.61212 0.333252 7.05392 0.333252 9.6V22.4C0.333252 24.9461 1.34468 27.3879 3.14503 29.1882C4.94538 30.9886 7.38717 32 9.93325 32H22.7333C25.2793 32 27.7211 30.9886 29.5215 29.1882C31.3218 27.3879 32.3333 24.9461 32.3333 22.4V9.6C32.3333 7.05392 31.3218 4.61212 29.5215 2.81178C27.7211 1.01143 25.2793 0 22.7333 0H9.93325ZM8.86659 16C8.86659 14.0197 9.65325 12.1205 11.0535 10.7203C12.4538 9.32 14.353 8.53333 16.3333 8.53333C18.3135 8.53333 20.2127 9.32 21.613 10.7203C23.0133 12.1205 23.7999 14.0197 23.7999 16C23.7999 17.9803 23.0133 19.8795 21.613 21.2797C20.2127 22.68 18.3135 23.4667 16.3333 23.4667C14.353 23.4667 12.4538 22.68 11.0535 21.2797C9.65325 19.8795 8.86659 17.9803 8.86659 16ZM23.7999 8.53333H25.9333V6.4H23.7999V8.53333Z" fill="#F9F4EF"/>
</g>
<defs>
<clipPath id="clip0_42_646">
<rect width="32" height="32" fill="white" transform="translate(0.333252)"/>
</clipPath>
</defs>
</svg>
