<svg width="33" height="32" viewBox="0 0 33 32" fill="none" xmlns="http://www.w3.org/2000/svg">
<g clip-path="url(#clip0_42_650)">
<path d="M0.333252 2.292C0.333252 1.026 1.38525 0 2.68325 0H29.9833C31.2813 0 32.3333 1.026 32.3333 2.292V29.708C32.3333 30.974 31.2813 32 29.9833 32H2.68325C1.38525 32 0.333252 30.974 0.333252 29.708V2.292ZM10.2193 26.788V12.338H5.41725V26.788H10.2193ZM7.81925 10.364C9.49325 10.364 10.5353 9.256 10.5353 7.868C10.5053 6.45 9.49525 5.372 7.85125 5.372C6.20725 5.372 5.13325 6.452 5.13325 7.868C5.13325 9.256 6.17525 10.364 7.78725 10.364H7.81925ZM17.6353 26.788V18.718C17.6353 18.286 17.6673 17.854 17.7953 17.546C18.1413 16.684 18.9313 15.79 20.2593 15.79C21.9973 15.79 22.6913 17.114 22.6913 19.058V26.788H27.4933V18.5C27.4933 14.06 25.1253 11.996 21.9653 11.996C19.4173 11.996 18.2753 13.396 17.6353 14.382V14.432H17.6033L17.6353 14.382V12.338H12.8353C12.8953 13.694 12.8353 26.788 12.8353 26.788H17.6353Z" fill="#F9F4EF"/>
</g>
<defs>
<clipPath id="clip0_42_650">
<rect width="32" height="32" fill="white" transform="translate(0.333252)"/>
</clipPath>
</defs>
</svg>
