<svg width="48" height="48" viewBox="0 0 48 48" fill="none" xmlns="http://www.w3.org/2000/svg">
<g clip-path="url(#clip0_42_224)">
<path fill-rule="evenodd" clip-rule="evenodd" d="M12 20.3077C11.5104 20.3077 11.0408 20.5022 10.6946 20.8484C10.3484 21.1946 10.1538 21.6642 10.1538 22.1538V32.3077C10.1538 32.7973 10.3484 33.2669 10.6946 33.6131C11.0408 33.9593 11.5104 34.1538 12 34.1538H16.6154C17.105 34.1538 17.5746 33.9593 17.9208 33.6131C18.267 33.2669 18.4615 32.7973 18.4615 32.3077V22.1538C18.4615 21.6642 18.267 21.1946 17.9208 20.8484C17.5746 20.5022 17.105 20.3077 16.6154 20.3077H12ZM14.3077 31.3846C14.7973 31.3846 15.2669 31.1901 15.6131 30.8439C15.9593 30.4977 16.1538 30.0281 16.1538 29.5385C16.1538 29.0488 15.9593 28.5793 15.6131 28.233C15.2669 27.8868 14.7973 27.6923 14.3077 27.6923C13.8181 27.6923 13.3485 27.8868 13.0023 28.233C12.656 28.5793 12.4615 29.0488 12.4615 29.5385C12.4615 30.0281 12.656 30.4977 13.0023 30.8439C13.3485 31.1901 13.8181 31.3846 14.3077 31.3846ZM26.7342 14.1508C26.6981 14.1147 26.6536 14.0882 26.6048 14.0736C26.556 14.059 26.5043 14.0567 26.4543 14.0669C26.4044 14.0772 26.3578 14.0996 26.3187 14.1323C26.2795 14.165 26.2491 14.2068 26.2302 14.2542L25.872 16.4049C25.4972 18.6535 24.3287 20.6932 22.5785 22.1538V30.7957L30.3249 32.3465C30.376 32.3559 30.4266 32.3683 30.4763 32.3834C31.029 32.5368 31.6166 32.5063 32.1504 32.2965C32.6842 32.0867 33.1354 31.709 33.4357 31.2203L33.8363 30.5686L34.7723 28.0985C35.4059 26.4258 35.3941 24.5771 34.7391 22.9126L34.1668 21.7662C33.9489 21.3294 33.6139 20.9617 33.1993 20.7042C32.7846 20.4466 32.3066 20.3094 31.8185 20.3077H29.04C28.9606 20.3077 28.8849 20.3022 28.8092 20.2929C28.5113 20.3308 28.2086 20.2953 27.9275 20.1897C27.6463 20.0841 27.3952 19.9115 27.1959 19.6869C26.9965 19.4623 26.855 19.1924 26.7835 18.9007C26.7121 18.609 26.7129 18.3042 26.7858 18.0129L27.0628 16.9163C27.1447 16.5862 27.1801 16.2463 27.168 15.9065L27.1422 15.1495C27.1299 14.796 26.9985 14.457 26.7692 14.1877L26.7342 14.1508ZM20.4055 34.1262L29.5385 35.952C30.8573 36.3069 32.2554 36.2261 33.5246 35.7218C34.7938 35.2174 35.866 34.3165 36.5815 33.1532L37.056 32.3852C37.1319 32.2659 37.1938 32.1383 37.2406 32.0049L38.2265 29.4037C39.1953 26.846 39.1663 24.0173 38.1452 21.48C38.1248 21.4285 38.102 21.378 38.0769 21.3286L37.4695 20.112C36.944 19.0613 36.1363 18.1776 35.1369 17.5601C34.1375 16.9425 32.9859 16.6154 31.8111 16.6154H30.8418C30.8637 16.3372 30.8699 16.058 30.8603 15.7791L30.8345 15.0222C30.7902 13.7544 30.2893 12.5454 29.424 11.6178L29.3446 11.5403C27.1477 9.33969 23.3889 10.3809 22.6357 13.3975C22.6233 13.4457 22.6128 13.4944 22.6043 13.5434L22.2295 15.7975C22.0991 16.581 21.8102 17.3296 21.3804 17.9975C20.9505 18.6654 20.3889 19.2386 19.7298 19.6818C19.4715 19.8493 19.2591 20.0788 19.1121 20.3493C18.9651 20.6199 18.888 20.9229 18.888 21.2308V32.2708C18.88 32.7095 19.0282 33.1368 19.3062 33.4764C19.5842 33.8159 19.9738 34.0455 20.4055 34.1243" fill="#5A4939"/>
<path fill-rule="evenodd" clip-rule="evenodd" d="M24 44.3077C35.2154 44.3077 44.3077 35.2154 44.3077 24C44.3077 12.7846 35.2154 3.69231 24 3.69231C12.7846 3.69231 3.69231 12.7846 3.69231 24C3.69231 35.2154 12.7846 44.3077 24 44.3077ZM24 48C37.2554 48 48 37.2554 48 24C48 10.7446 37.2554 0 24 0C10.7446 0 0 10.7446 0 24C0 37.2554 10.7446 48 24 48Z" fill="#5A4939"/>
</g>
<defs>
<clipPath id="clip0_42_224">
<rect width="48" height="48" fill="white"/>
</clipPath>
</defs>
</svg>
