<svg width="29" height="32" viewBox="0 0 29 32" fill="none" xmlns="http://www.w3.org/2000/svg">
<g clip-path="url(#clip0_42_648)">
<path d="M4.33325 2C2.127 2 0.333252 3.79375 0.333252 6V26C0.333252 28.2062 2.127 30 4.33325 30H24.3333C26.5395 30 28.3333 28.2062 28.3333 26V6C28.3333 3.79375 26.5395 2 24.3333 2H4.33325ZM22.902 7.25L16.4145 14.6625L24.0458 24.75H18.0708L13.3958 18.6313L8.0395 24.75H5.07075L12.0083 16.8188L4.6895 7.25H10.8145L15.0458 12.8438L19.9333 7.25H22.902ZM20.5395 22.975L9.92075 8.93125H8.152L18.8895 22.975H20.5333H20.5395Z" fill="#F9F4EF"/>
</g>
<defs>
<clipPath id="clip0_42_648">
<rect width="28" height="32" fill="white" transform="translate(0.333252)"/>
</clipPath>
</defs>
</svg>
